<svg id="Calque_1" data-name="Calque 1" xmlns="http://www.w3.org/2000/svg" viewBox="0 0 111 56"><defs><style>.cls-1{fill:#fff;}</style></defs><title>logo_slip</title><polygon class="cls-1" points="7.94 7.92 7.94 23.8 23.81 23.8 23.81 39.67 39.68 39.67 39.68 47.61 71.43 47.61 71.43 39.67 87.31 39.67 87.31 23.8 103.18 23.8 103.18 7.92 7.94 7.92"/><path d="M0,0V23.8H7.94v7.93h7.93v7.94h7.94v7.94h7.94v7.93H79.37V47.61H87.3V39.67h7.94V31.73h7.94V23.8h7.94V0ZM103.18,15.86H95.24V23.8H87.3v7.93H79.37v7.94H71.43v7.94H39.68V39.67H31.75V31.73H23.81V23.8H15.87V15.86H7.94V7.92H39.68V23.8h7.94V7.92H63.49V23.8h7.94V7.92h31.75Z"/><rect x="71.43" y="23.8" width="7.94" height="7.94"/><rect x="31.75" y="23.8" width="7.94" height="7.94"/></svg>